<svg
        viewBox="0 0 58 58"
        fill="none"
        xmlns="http://www.w3.org/2000/svg">
    <g id="logo">
        <g id="bgCircle">
            <path
                    id="Vector"
                    d="M28.5982 57.7027C44.3925 57.7027 57.1963 44.7855 57.1963 28.8514C57.1963 12.9172 44.3925 0 28.5982 0C12.8038 0 0 12.9172 0 28.8514C0 44.7855 12.8038 57.7027 28.5982 57.7027Z"
                    fill="#FF0101"
            />
        </g>
        <g id="man">
            <g id="head">
                <path
                        id="Vector_2"
                        d="M40.9173 16.423C43.5555 16.423 45.6942 14.2654 45.6942 11.6039C45.6942 8.94239 43.5555 6.78479 40.9173 6.78479C38.2792 6.78479 36.1405 8.94239 36.1405 11.6039C36.1405 14.2654 38.2792 16.423 40.9173 16.423Z"
                        fill="#020203"
                />
            </g>
            <g id="bodyMasked">
                <mask
                        id="mask0_66308_128"
                        maskUnits="userSpaceOnUse"
                        x="0"
                        y="0"
                        width="58"
                        height="58">
                    <path
                            id="Vector_3"
                            d="M28.5982 57.7027C44.3925 57.7027 57.1963 44.7855 57.1963 28.8514C57.1963 12.9172 44.3925 0 28.5982 0C12.8038 0 0 12.9172 0 28.8514C0 44.7855 12.8038 57.7027 28.5982 57.7027Z"
                            fill="#FF0101"
                    />
                </mask>
                <g mask="url(#mask0_66308_128)">
                    <g id="body">
                        <path
                                id="Vector_4"
                                d="M39.5347 29.422C39.8489 29.9293 40.4146 30.2463 41.0432 30.2463C41.3574 30.2463 41.6717 30.1829 41.986 29.9927L50.5968 24.7931C51.4768 24.2858 51.7282 23.1445 51.2254 22.3201C50.7225 21.4324 49.5912 21.1788 48.7741 21.686L41.6088 25.9979L38.1519 19.2131C37.2091 18.2619 36.1406 17.3108 35.0721 16.4865L24.8271 11.2869C24.1357 10.9698 23.3814 11.0332 22.8158 11.5405L14.2677 19.3399C13.5135 20.0374 13.4506 21.1788 14.142 21.8763C14.8334 22.6372 15.9648 22.7006 16.6562 22.0031L24.3871 15.028L29.7296 17.7546L20.553 32.0852L-0.377035 57.0686C-1.19413 58.0197 -1.13127 59.5415 -0.125623 60.3659C0.817173 61.1902 2.32565 61.1268 3.14274 60.1122L23.4443 36.4605L32.1809 38.4896L26.2098 47.9376C25.5813 49.079 25.9584 50.474 27.0898 51.1081C28.0954 51.6788 29.4153 51.4251 30.1067 50.4106L37.7748 38.1725C38.2148 37.5384 38.2776 36.7141 38.0262 36.0166C37.7119 35.3191 37.1463 34.8118 36.392 34.685L29.6667 33.0998L35.7635 23.4615L39.5347 29.422Z"
                                fill="#020203"
                        />
                    </g>
                </g>
            </g>
        </g>
    </g>
</svg>